<?xml version="1.0" encoding="UTF-8"?>
<svg width="1159px" height="1318px" viewBox="0 0 1159 1318" version="1.1" xmlns="http://www.w3.org/2000/svg" xmlns:xlink="http://www.w3.org/1999/xlink">
    <g id="RG-Logo" stroke="none" stroke-width="1" fill="none" fill-rule="evenodd">
        <g id="ReallyGood">
            <g id="Group">
                <path
                    id="rg-hexagon"
                    d="M1158.84364,378.444159 C1158.84364,378.444159 1158.75065,325.788046 1129.17763,306.487183 C1019.11903,243.035132 638.992416,23.8286793 611.412008,7.61882495 C611.412008,7.61882495 575.034883,-9.26610774 547.59263,7.47530436 C546.587267,8.10269729 151.557004,236.358766 33.1347424,304.528393 C-1.21257543,325.679077 0.0334712973,378.664756 0.0334712973,378.664756 L0.0334712973,957.823528 C0.0334712973,957.823528 0.43465052,990.992733 37.4334707,1014.19523 C156.549161,1083.10106 548.260841,1309.22412 548.451061,1309.35225 C552.792174,1312.27647 582.003263,1326.57084 611.884922,1308.32209 C614.427495,1306.83639 1010.53751,1078.15758 1127.00701,1010.93412 C1159.84792,990.171477 1158.84364,934.570534 1158.84364,934.570534 L1158.84364,378.444159 Z"
                    fill="#CE202A"></path>
            </g>
        </g>
    </g>
</svg>